<svg width="20" height="20" viewBox="0 0 25 23" fill="none" xmlns="http://www.w3.org/2000/svg">
<path d="M12.625 19.5L12.5 19.625L12.3625 19.5C6.425 14.1125 2.5 10.55 2.5 6.9375C2.5 4.4375 4.375 2.5625 6.875 2.5625C8.8 2.5625 10.675 3.8125 11.3375 5.5125H13.6625C14.325 3.8125 16.2 2.5625 18.125 2.5625C20.625 2.5625 22.5 4.4375 22.5 6.9375C22.5 10.55 18.575 14.1125 12.625 19.5ZM18.125 0.0625C15.95 0.0625 13.8625 1.075 12.5 2.6625C11.1375 1.075 9.05 0.0625 6.875 0.0625C3.025 0.0625 0 3.075 0 6.9375C0 11.65 4.25 15.5125 10.6875 21.35L12.5 23L14.3125 21.35C20.75 15.5125 25 11.65 25 6.9375C25 3.075 21.975 0.0625 18.125 0.0625Z" fill="#F24E1E"/>
</svg>
